<svg width="60" height="60" viewBox="0 0 60 60" fill="none" xmlns="http://www.w3.org/2000/svg">
<path d="M60 34.8904C60 30.5621 56.5569 27.0256 52.2656 26.8704V22.2656C52.2656 9.9884 42.2772 0 30 0C17.7228 0 7.73438 9.9884 7.73438 22.2656V26.8707C3.44312 27.0256 0 30.5621 0 34.8904C0 39.2183 3.44312 42.7555 7.73438 42.9104V46.9534H12.5391V49.964C12.5391 53.4119 15.3442 56.217 18.7921 56.217H22.6758V60H31.9724C34.9237 60 37.3242 57.5995 37.3242 54.6482C37.3242 51.6976 34.9237 49.2971 31.9724 49.2971H22.6758V52.7014H18.7921C17.2822 52.7014 16.0547 51.4731 16.0547 49.964V46.9534H20.8594V22.8278H11.25V22.2656C11.25 11.9268 19.6611 3.51562 30 3.51562C40.3389 3.51562 48.75 11.9268 48.75 22.2656V22.8278H39.1406V46.9534H52.2656V42.9104C56.5569 42.7555 60 39.2183 60 34.8904ZM26.1914 52.8127H31.9724C32.985 52.8127 33.8086 53.636 33.8086 54.6482C33.8086 55.6608 32.985 56.4844 31.9724 56.4844H26.1914V52.8127ZM3.51562 34.8904C3.51562 32.5012 5.38293 30.5405 7.73438 30.3889V39.3915C5.38293 39.2399 3.51562 37.2795 3.51562 34.8904ZM17.3438 43.4377H11.25V26.3434H17.3438V43.4377ZM48.75 43.4377H42.6562V26.3434H48.75V43.4377ZM52.2656 39.3915V30.3889C54.6171 30.5405 56.4844 32.5012 56.4844 34.8904C56.4844 37.2795 54.6171 39.2399 52.2656 39.3915Z" fill="white"/>
</svg>
