<svg width="60" height="60" viewBox="0 0 60 60" fill="none" xmlns="http://www.w3.org/2000/svg">
<path d="M48.0707 27.9255V4.79126H0V49.9816H35.545C38.0561 53.1617 41.9419 55.2088 46.2992 55.2088C53.8538 55.2088 60 49.0626 60 41.508C60 34.554 54.7911 28.7976 48.0707 27.9255ZM17.1445 8.21645H30.9264V19.741L24.0355 15.956L17.1445 19.741V8.21645ZM33.5662 46.5562H3.4252V8.21645H13.7193V25.5301L24.0355 19.864L34.3516 25.5301V8.21645H44.6455V27.9106C37.8683 28.7301 32.5983 34.5134 32.5983 41.508C32.5983 43.2903 32.944 44.9926 33.5662 46.5562ZM46.2992 51.7836C40.6333 51.7836 36.0236 47.1739 36.0236 41.508C36.0236 35.842 40.6333 31.2324 46.2992 31.2324C51.9652 31.2324 56.5748 35.842 56.5748 41.508C56.5748 47.1739 51.9652 51.7836 46.2992 51.7836Z" fill="white"/>
<path d="M46.2889 40.8924L43.8772 38.4805L41.4551 40.9025L46.3094 45.7568L52.5721 39.3875L50.1297 36.9861L46.2889 40.8924Z" fill="white"/>
</svg>
