<svg width="45" height="50" viewBox="0 0 45 50" fill="none" xmlns="http://www.w3.org/2000/svg">
<path d="M43.5501 7.95439C40.0162 7.95439 37.1413 5.04434 37.1413 1.46758V0H7.85865V1.46758C7.85865 5.04453 4.98362 7.95439 1.44991 7.95439H0V17.714C0 24.7271 2.08717 31.4802 6.03613 37.2429C9.98509 43.0055 15.5025 47.3504 21.992 49.8076L22.5 50L23.0081 49.8076C29.4977 47.3504 35.0151 43.0056 38.9639 37.2429C42.9128 31.4802 45 24.7271 45 17.714V7.95439H43.5501ZM42.1003 17.714C42.1003 24.1265 40.1917 30.3009 36.581 35.5699C33.074 40.6879 28.2135 44.5829 22.4999 46.8609C16.7864 44.5828 11.9258 40.6879 8.41882 35.5699C4.80822 30.301 2.89983 24.1265 2.89983 17.714V10.7755C6.87387 10.1437 10.0216 6.95762 10.6458 2.93516H34.3543C34.9784 6.95762 38.1261 10.1437 42.1003 10.7755V17.714Z" fill="black"/>
<path d="M28.9698 13.7878L19.3722 23.5024L16.03 20.1195L9.87854 26.346L19.3722 35.9553L35.1212 20.0142L28.9698 13.7878ZM13.9796 26.3462L16.0301 24.2707L19.3723 27.6536L28.9699 17.939L31.0204 20.0144L19.3723 31.8045L13.9796 26.3462Z" fill="black"/>
</svg>
