<svg width="48" height="40" viewBox="0 0 48 40" fill="none" xmlns="http://www.w3.org/2000/svg">
<path d="M13.0915 14.3497C15.6794 14.3497 17.7848 12.2732 17.7848 9.72092C17.7848 7.16863 15.6794 5.09215 13.0915 5.09215C10.5036 5.09215 8.39817 7.16863 8.39817 9.72092C8.39817 12.2732 10.5036 14.3497 13.0915 14.3497ZM13.0915 7.87303C14.1246 7.87303 14.9652 8.70201 14.9652 9.72092C14.9652 10.7398 14.1246 11.5688 13.0915 11.5688C12.0584 11.5688 11.2178 10.7398 11.2178 9.72092C11.2178 8.70201 12.0584 7.87303 13.0915 7.87303Z" fill="url(#paint0_linear)"/>
<path d="M43.2409 27.8424H41.3279C41.3785 27.5746 41.4926 27.2518 41.7254 26.8959C42.4422 25.8004 42.5955 24.8329 42.7306 23.9793C42.8159 23.4414 42.8964 22.9333 43.1154 22.3471C43.3094 21.8278 43.6826 21.4061 44.0648 21.0847L45.3872 24.2996L48 23.2541L43.272 11.7238L42.1234 11.953C41.9922 11.9792 38.8897 12.6347 36.9497 16.1777C35.5337 18.7638 32.3457 20.7716 28.4673 21.5762L27.6942 18.7792L26.3157 19.1771C23.6498 19.9466 22.2916 20.626 19.5636 22.277C18.6315 22.8412 17.3879 23.1876 15.847 23.3158C16.5326 22.4076 18.4038 19.9688 18.4038 19.9688C20.3216 17.4943 22.9481 14.1053 22.9481 9.72092C22.9481 4.36078 18.5265 0 13.0916 0C7.65669 0 3.23499 4.36078 3.23499 9.72092C3.23499 14.1053 5.86141 17.4943 7.77925 19.9688C7.77925 19.9688 9.52293 22.24 10.1764 23.1044C7.97042 23.0676 6.25194 23.6532 4.94897 24.8801C3.42908 26.3112 2.81035 28.6793 3.2991 30.8457L0 33.0095L3.90053 39.9666H5.79261L7.25451 38.3441C8.72995 36.7066 10.85 35.7675 13.071 35.7675C14.9446 35.7675 16.7587 36.4373 18.1795 37.6536C19.7965 39.0378 21.3669 39.8138 22.8472 39.9598C23.1275 39.9874 23.3937 40 23.6475 40C25.0208 40 26.0311 39.6328 26.9392 39.3027C27.9627 38.9308 28.7714 38.6369 30.1329 38.8111C30.7081 38.8846 31.2317 38.9197 31.7114 38.9197C34.4019 38.9196 35.6915 37.813 36.7076 36.1687C37.0586 35.6008 37.5486 35.2727 38.0158 35.129C39.0505 34.8108 40.362 36.1631 40.362 36.1631L43.0259 34.8718C43.4999 36.1583 43.7407 37.5039 43.7407 38.8775H46.5604C46.5604 37.0217 46.206 35.207 45.5074 33.4839L43.2409 27.8424ZM13.0915 2.78087C16.9716 2.78087 20.1283 5.89416 20.1283 9.72092C20.1283 13.1643 17.9299 16.0009 16.1635 18.2801C16.1635 18.2801 13.849 21.3032 13.0914 22.3104C12.3338 21.3032 10.0193 18.2801 10.0193 18.2801C8.25286 16.0009 6.05447 13.1643 6.05447 9.72092C6.05465 5.89416 9.21136 2.78087 13.0915 2.78087ZM40.6002 32.9489C39.3258 32.2588 38.2223 32.2554 37.4741 32.3998C36.2003 32.6457 35.0731 33.4702 34.3 34.7213C33.7414 35.6256 33.2584 36.4066 30.4955 36.0532C28.4457 35.7912 27.1276 36.2705 25.9642 36.6934C25.0224 37.0357 24.2785 37.3062 23.1278 37.1926C22.2514 37.1062 21.1795 36.5393 20.0278 35.5534C18.0942 33.8981 15.6236 32.9865 13.071 32.9865C10.0545 32.9865 7.17481 34.258 5.16552 36.476L3.72468 33.9061L6.71586 31.9442L6.25851 30.882C5.58386 29.3151 6.08342 27.6564 6.89604 26.8912C7.82794 26.0138 9.14378 25.7249 11.1625 25.9546C15.5324 26.4519 18.7629 26.0242 21.0384 24.647C23.0644 23.4208 24.1816 22.816 25.7382 22.2759L26.4104 24.7083L27.6389 24.5396C33.0126 23.8019 37.4206 21.1698 39.4306 17.4988C40.1122 16.2541 40.9658 15.5409 41.6302 15.1426L42.9683 18.419C42.0958 18.9936 41.004 19.9547 40.4694 21.3854C40.1536 22.2309 40.0426 22.9316 39.9447 23.5497C39.8266 24.2954 39.7485 24.7881 39.3561 25.3878C37.8403 27.7045 38.7102 29.6279 38.8143 29.8396L39.1998 30.623H41.3207L41.9819 32.2786L40.6002 32.9489Z" fill="url(#paint1_linear)"/>
<defs>
<linearGradient id="paint0_linear" x1="0" y1="0" x2="48" y2="0" gradientUnits="userSpaceOnUse">
<stop stop-color="#2266B8"/>
<stop offset="1" stop-color="#61A8DE"/>
<stop offset="1" stop-color="#61A8DE"/>
</linearGradient>
<linearGradient id="paint1_linear" x1="0" y1="0" x2="48" y2="0" gradientUnits="userSpaceOnUse">
<stop stop-color="#2266B8"/>
<stop offset="1" stop-color="#61A8DE"/>
<stop offset="1" stop-color="#61A8DE"/>
</linearGradient>
</defs>
</svg>
