<svg width="50" height="36" viewBox="0 0 50 36" fill="none" xmlns="http://www.w3.org/2000/svg">
<path d="M45.8689 7.43975C43.591 7.43975 41.7379 9.30682 41.7379 11.6017C41.7379 11.9779 41.7886 12.3422 41.8818 12.689L39.0157 14.1102L36.4428 7.79079L29.9896 11.5531L27.2527 7.61389C28.3533 6.86547 29.0785 5.59747 29.0785 4.16192C29.0785 1.86707 27.2253 0 24.9475 0C22.6695 0 20.8164 1.86707 20.8164 4.16192C20.8164 5.58862 21.5329 6.84963 22.6222 7.59972L19.9143 11.497L13.5572 7.79069L10.9616 14.1658L7.97832 12.6865C8.16084 12.2172 8.26211 11.7071 8.26211 11.1735C8.26211 8.87864 6.40889 7.01157 4.13105 7.01157C1.85322 7.01167 0 8.87874 0 11.1736C0 13.4684 1.85322 15.3355 4.13105 15.3355C4.46514 15.3355 4.78975 15.2943 5.10098 15.2185L10.1028 29.3891V36H39.7459V29.435L44.6382 15.5749C45.0271 15.6974 45.4404 15.7636 45.8689 15.7636C48.1468 15.7636 50 13.8965 50 11.6017C50 9.30682 48.1468 7.43975 45.8689 7.43975ZM4.13105 12.3839C3.46865 12.3839 2.92969 11.8409 2.92969 11.1736C2.92969 10.5062 3.46865 9.96325 4.13105 9.96325C4.79355 9.96325 5.33242 10.5061 5.33242 11.1736C5.33242 11.841 4.79346 12.3839 4.13105 12.3839ZM35.0058 12.0388L36.3811 15.4167L33.624 16.7839L31.676 13.9801L35.0058 12.0388ZM24.9475 2.95168C25.6099 2.95168 26.1488 3.49467 26.1488 4.16202C26.1488 4.82937 25.6099 5.37236 24.9475 5.37236C24.285 5.37236 23.7461 4.82937 23.7461 4.16202C23.7461 3.49457 24.285 2.95168 24.9475 2.95168ZM14.9941 12.0388L18.2279 13.9241L16.241 16.7838L13.5962 15.4723L14.9941 12.0388ZM36.8163 33.0483H13.0326V30.6102H36.8163V33.0483ZM37.2636 27.6586H12.6016L8.58398 16.2766L17.2009 20.5494L24.9326 9.42153L32.6644 20.5494L41.2812 16.2766L37.2636 27.6586ZM45.8689 12.812C45.2064 12.812 44.6676 12.269 44.6676 11.6017C44.6676 10.9343 45.2065 10.3913 45.8689 10.3913C46.5313 10.3913 47.0703 10.9343 47.0703 11.6017C47.0703 12.269 46.5313 12.812 45.8689 12.812Z" fill="url(#paint0_linear)"/>
<defs>
<linearGradient id="paint0_linear" x1="0" y1="0" x2="50" y2="0" gradientUnits="userSpaceOnUse">
<stop stop-color="#2266B8"/>
<stop offset="1" stop-color="#61A8DE"/>
<stop offset="1" stop-color="#61A8DE"/>
</linearGradient>
</defs>
</svg>
