<svg width="50" height="44" viewBox="0 0 50 44" fill="none" xmlns="http://www.w3.org/2000/svg">
<path d="M44.1406 8.8V0H5.85938C2.62852 0 0 2.63179 0 5.86667V36.6667C0 40.7103 3.28564 44 7.32422 44H50V8.8H44.1406ZM5.85938 2.93333H41.2109V8.8H5.85938C4.24395 8.8 2.92969 7.48411 2.92969 5.86667C2.92969 4.24923 4.24395 2.93333 5.85938 2.93333ZM47.0703 32.2667H39.7461C37.3229 32.2667 35.3516 30.2928 35.3516 27.8667C35.3516 25.4405 37.3229 23.4667 39.7461 23.4667H47.0703V32.2667ZM47.0703 20.5333H39.7461C35.7075 20.5333 32.4219 23.8231 32.4219 27.8667C32.4219 31.9103 35.7075 35.2 39.7461 35.2H47.0703V41.0667H7.32422C4.90107 41.0667 2.92969 39.0928 2.92969 36.6667V10.9441C3.79228 11.445 4.79248 11.7333 5.85938 11.7333C8.00273 11.7333 43.909 11.7333 47.0703 11.7333V20.5333Z" fill="black"/>
<path d="M41.2109 26.4H38.2812V29.3333H41.2109V26.4Z" fill="black"/>
</svg>
