<svg width="47" height="60" viewBox="0 0 47 60" fill="none" xmlns="http://www.w3.org/2000/svg">
<path d="M35.8375 3.46617V0H11.1625V3.46617H0V60H47V3.46617H35.8375ZM14.6875 3.51562H32.3125V6.9818H14.6875V3.51562ZM43.475 56.4844H3.525V6.9818H11.1625V10.4974H35.8375V6.9818H43.475V56.4844Z" fill="white"/>
<path d="M17.625 14.599H7.05V25.1459H17.625V14.599ZM14.1 21.6303H10.575V18.1146H14.1V21.6303Z" fill="white"/>
<path d="M23.4853 18.1146H39.95V21.6303H23.4853V18.1146Z" fill="white"/>
<path d="M17.625 29.1302H7.05V39.6771H17.625V29.1302ZM14.1 36.1615H10.575V32.6459H14.1V36.1615Z" fill="white"/>
<path d="M23.4853 32.6459H39.95V36.1615H23.4853V32.6459Z" fill="white"/>
<path d="M23.4853 46.9427H39.95V50.4584H23.4853V46.9427Z" fill="white"/>
<path d="M10.9275 48.6756L8.64871 46.403L6.1563 48.8889L10.9275 53.6474L18.6362 45.9592L16.1438 43.4733L10.9275 48.6756Z" fill="white"/>
</svg>
