<svg width="57" height="60" viewBox="0 0 57 60" fill="none" xmlns="http://www.w3.org/2000/svg">
<path d="M0 0V60H42.75V11.622L31.019 0H0ZM32.0625 6.02506L36.6684 10.5882H32.0625V6.02506ZM3.5625 56.4706V3.52941H28.5V14.1176H39.1875V56.4706H3.5625Z" fill="white"/>
<path d="M27.4095 45.0699L20.387 49.7081L22.363 52.6448L26.028 50.2242L27.3991 52.9412H35.625V49.4118H29.6009L27.4095 45.0699Z" fill="white"/>
<path d="M51.6563 7.05882C48.7097 7.05882 46.3125 9.43376 46.3125 12.3529V51.6916L51.6563 59.9858L57 51.6916C57 49.9608 57 14.3381 57 12.3529C57 9.43376 54.6028 7.05882 51.6563 7.05882ZM53.4375 22.9412H49.875V19.4118H53.4375V22.9412ZM51.6563 10.5882C52.6384 10.5882 53.4375 11.3799 53.4375 12.3529V15.8823H49.875V12.3529C49.875 11.3799 50.6741 10.5882 51.6563 10.5882ZM53.4375 50.6613L51.6563 53.426L49.875 50.6613V47.6471H53.4375V50.6613ZM49.875 44.1176V26.4706H53.4375V44.1176H49.875Z" fill="white"/>
<path d="M7.12501 37.0588H35.625V40.5882H7.12501V37.0588Z" fill="white"/>
<path d="M7.12501 30H35.625V33.5294H7.12501V30Z" fill="white"/>
<path d="M7.12501 22.9412H35.625V26.4706H7.12501V22.9412Z" fill="white"/>
<path d="M7.12501 15.8824H21.375V19.4118H7.12501V15.8824Z" fill="white"/>
<path d="M7.12501 8.82351H21.375V12.3529H7.12501V8.82351Z" fill="white"/>
</svg>
