<?xml version="1.0" encoding="utf-8"?><svg viewBox="0 0 512.01 512.01" xmlns="http://www.w3.org/2000/svg" xmlns:xlink="http://www.w3.org/1999/xlink"><style>:root>svg{display:none}:root>svg:target{display:block}</style><svg fill="none" viewBox="0 0 32 22" id="arrow" xmlns="http://www.w3.org/2000/svg"><g opacity=".25" stroke="#5B7183" stroke-width="2"><path d="M20.5 1l10 10.21-10 9.79M0 11h30"/></g></svg><svg fill="none" viewBox="0 0 11 9" id="check" xmlns="http://www.w3.org/2000/svg"><path d="M1 3.936L4.537 7 10 1" stroke="#fff" stroke-width="2"/></svg><svg fill="none" viewBox="0 0 48 40" id="first" xmlns="http://www.w3.org/2000/svg"><path d="M13.091 14.35c2.588 0 4.694-2.077 4.694-4.63 0-2.551-2.106-4.628-4.694-4.628-2.587 0-4.693 2.077-4.693 4.629 0 2.552 2.106 4.629 4.694 4.629zm0-6.477c1.034 0 1.874.829 1.874 1.848 0 1.019-.84 1.848-1.873 1.848-1.034 0-1.874-.83-1.874-1.848 0-1.019.84-1.848 1.873-1.848z" fill="url(#cpaint0_linear)"/><path d="M43.24 27.842h-1.912c.05-.267.165-.59.397-.946.717-1.096.87-2.063 1.006-2.917.085-.538.165-1.046.384-1.632.194-.52.568-.94.95-1.262l1.322 3.215L48 23.254l-4.728-11.53-1.149.229c-.13.026-3.233.682-5.173 4.225-1.416 2.586-4.604 4.594-8.483 5.398l-.773-2.797-1.378.398c-2.666.77-4.024 1.449-6.752 3.1-.933.564-2.176.91-3.717 1.039.686-.908 2.557-3.347 2.557-3.347 1.918-2.475 4.544-5.864 4.544-10.248C22.948 4.36 18.526 0 13.092 0 7.657 0 3.235 4.36 3.235 9.72c0 4.385 2.626 7.774 4.544 10.249 0 0 1.744 2.271 2.397 3.135-2.206-.036-3.924.55-5.227 1.776-1.52 1.431-2.139 3.8-1.65 5.966L0 33.01l3.9 6.957h1.893l1.462-1.623a7.86 7.86 0 0110.925-.69c1.617 1.384 3.187 2.16 4.667 2.306.28.027.547.04.8.04 1.374 0 2.384-.367 3.292-.697 1.024-.372 1.832-.666 3.194-.492.575.074 1.099.109 1.578.109 2.69 0 3.98-1.107 4.997-2.751a2.365 2.365 0 011.308-1.04c1.035-.318 2.346 1.034 2.346 1.034l2.664-1.291c.474 1.286.715 2.632.715 4.005h2.82c0-1.855-.355-3.67-1.054-5.393l-2.266-5.642zM13.092 2.781c3.88 0 7.037 3.113 7.037 6.94 0 3.443-2.198 6.28-3.965 8.56 0 0-2.314 3.022-3.072 4.03-.757-1.008-3.072-4.03-3.072-4.03C8.253 16 6.054 13.163 6.054 9.72c0-3.827 3.157-6.94 7.037-6.94zm27.51 30.168c-1.275-.69-2.379-.694-3.127-.55-1.274.247-2.4 1.071-3.174 2.322-.559.905-1.042 1.686-3.804 1.332-2.05-.262-3.368.218-4.532.64-.942.343-1.685.613-2.836.5-.877-.087-1.948-.654-3.1-1.64a10.703 10.703 0 00-6.957-2.566 10.675 10.675 0 00-7.905 3.489l-1.441-2.57 2.99-1.962-.456-1.062c-.675-1.567-.176-3.226.637-3.99.932-.878 2.248-1.167 4.266-.937 4.37.497 7.6.07 9.876-1.308 2.026-1.226 3.144-1.831 4.7-2.371l.672 2.432 1.229-.168c5.374-.738 9.782-3.37 11.792-7.041.681-1.245 1.535-1.958 2.2-2.356l1.337 3.276c-.872.575-1.964 1.536-2.499 2.966-.315.846-.426 1.547-.524 2.165-.118.745-.197 1.238-.589 1.838-1.516 2.316-.646 4.24-.542 4.452l.386.783h2.12l.662 1.656-1.382.67z" fill="url(#cpaint1_linear)"/><defs><linearGradient id="cpaint0_linear" x1="0" y1="0" x2="48" y2="0" gradientUnits="userSpaceOnUse"><stop stop-color="#2266B8"/><stop offset="1" stop-color="#61A8DE"/><stop offset="1" stop-color="#61A8DE"/></linearGradient><linearGradient id="cpaint1_linear" x1="0" y1="0" x2="48" y2="0" gradientUnits="userSpaceOnUse"><stop stop-color="#2266B8"/><stop offset="1" stop-color="#61A8DE"/><stop offset="1" stop-color="#61A8DE"/></linearGradient></defs></svg><svg fill="none" viewBox="0 0 45 50" id="guarantee" xmlns="http://www.w3.org/2000/svg"><path d="M43.55 7.954c-3.534 0-6.409-2.91-6.409-6.486V0H7.86v1.468c0 3.577-2.875 6.486-6.41 6.486H0v9.76a34.4 34.4 0 006.036 19.529c3.95 5.762 9.466 10.107 15.956 12.565L22.5 50l.508-.192c6.49-2.458 12.007-6.802 15.956-12.565A34.4 34.4 0 0045 17.714v-9.76h-1.45zm-1.45 9.76a31.452 31.452 0 01-5.519 17.856c-3.507 5.118-8.368 9.013-14.081 11.29-5.714-2.277-10.574-6.172-14.081-11.29a31.453 31.453 0 01-5.52-17.856v-6.938c3.975-.632 7.123-3.818 7.747-7.84h23.708c.624 4.022 3.772 7.208 7.746 7.84v6.938z" fill="#000"/><path d="M28.97 13.788l-9.598 9.714-3.342-3.383-6.151 6.227 9.493 9.61 15.75-15.942-6.152-6.226zM13.98 26.346l2.05-2.075 3.342 3.383 9.598-9.715 2.05 2.075-11.648 11.79-5.392-5.458z" fill="#000"/></svg><svg fill="none" viewBox="0 0 48 40" id="intro-01" xmlns="http://www.w3.org/2000/svg"><path d="M13.091 14.35c2.588 0 4.694-2.077 4.694-4.63 0-2.551-2.106-4.628-4.694-4.628-2.587 0-4.693 2.077-4.693 4.629 0 2.552 2.106 4.629 4.694 4.629zm0-6.477c1.034 0 1.874.829 1.874 1.848 0 1.019-.84 1.848-1.873 1.848-1.034 0-1.874-.83-1.874-1.848 0-1.019.84-1.848 1.873-1.848z" fill="url(#epaint0_linear)"/><path d="M43.24 27.842h-1.912c.05-.267.165-.59.397-.946.717-1.096.87-2.063 1.006-2.917.085-.538.165-1.046.384-1.632.194-.52.568-.94.95-1.262l1.322 3.215L48 23.254l-4.728-11.53-1.149.229c-.13.026-3.233.682-5.173 4.225-1.416 2.586-4.604 4.594-8.483 5.398l-.773-2.797-1.378.398c-2.666.77-4.024 1.449-6.752 3.1-.933.564-2.176.91-3.717 1.039.686-.908 2.557-3.347 2.557-3.347 1.918-2.475 4.544-5.864 4.544-10.248C22.948 4.36 18.526 0 13.092 0 7.657 0 3.235 4.36 3.235 9.72c0 4.385 2.626 7.774 4.544 10.249 0 0 1.744 2.271 2.397 3.135-2.206-.036-3.924.55-5.227 1.776-1.52 1.431-2.139 3.8-1.65 5.966L0 33.01l3.9 6.957h1.893l1.462-1.623a7.86 7.86 0 0110.925-.69c1.617 1.384 3.187 2.16 4.667 2.306.28.027.547.04.8.04 1.374 0 2.384-.367 3.292-.697 1.024-.372 1.832-.666 3.194-.492.575.074 1.099.109 1.578.109 2.69 0 3.98-1.107 4.997-2.751a2.365 2.365 0 011.308-1.04c1.035-.318 2.346 1.034 2.346 1.034l2.664-1.291c.474 1.286.715 2.632.715 4.005h2.82c0-1.855-.355-3.67-1.054-5.393l-2.266-5.642zM13.092 2.781c3.88 0 7.037 3.113 7.037 6.94 0 3.443-2.198 6.28-3.965 8.56 0 0-2.314 3.022-3.072 4.03-.757-1.008-3.072-4.03-3.072-4.03C8.253 16 6.054 13.163 6.054 9.72c0-3.827 3.157-6.94 7.037-6.94zm27.51 30.168c-1.275-.69-2.379-.694-3.127-.55-1.274.247-2.4 1.071-3.174 2.322-.559.905-1.042 1.686-3.804 1.332-2.05-.262-3.368.218-4.532.64-.942.343-1.685.613-2.836.5-.877-.087-1.948-.654-3.1-1.64a10.703 10.703 0 00-6.957-2.566 10.675 10.675 0 00-7.905 3.489l-1.441-2.57 2.99-1.962-.456-1.062c-.675-1.567-.176-3.226.637-3.99.932-.878 2.248-1.167 4.266-.937 4.37.497 7.6.07 9.876-1.308 2.026-1.226 3.144-1.831 4.7-2.371l.672 2.432 1.229-.168c5.374-.738 9.782-3.37 11.792-7.041.681-1.245 1.535-1.958 2.2-2.356l1.337 3.276c-.872.575-1.964 1.536-2.499 2.966-.315.846-.426 1.547-.524 2.165-.118.745-.197 1.238-.589 1.838-1.516 2.316-.646 4.24-.542 4.452l.386.783h2.12l.662 1.656-1.382.67z" fill="url(#epaint1_linear)"/><defs><linearGradient id="epaint0_linear" x1="0" y1="0" x2="48" y2="0" gradientUnits="userSpaceOnUse"><stop stop-color="#2266B8"/><stop offset="1" stop-color="#61A8DE"/><stop offset="1" stop-color="#61A8DE"/></linearGradient><linearGradient id="epaint1_linear" x1="0" y1="0" x2="48" y2="0" gradientUnits="userSpaceOnUse"><stop stop-color="#2266B8"/><stop offset="1" stop-color="#61A8DE"/><stop offset="1" stop-color="#61A8DE"/></linearGradient></defs></svg><svg fill="none" viewBox="0 0 38 50" id="intro-02" xmlns="http://www.w3.org/2000/svg"><path d="M30.537 6.494V3.45h-5.85a6.41 6.41 0 00-11.373 0h-5.85v3.044H0V50h38V6.494h-7.463zM10.372 6.38h4.953l.328-1.008A3.517 3.517 0 0119 2.93c1.526 0 2.871.981 3.347 2.442l.328 1.008h4.953v3.613H10.372V6.38zm24.72 40.69H2.908V9.424h4.555v3.5h23.074v-3.5h4.555V47.07z" fill="url(#fpaint0_linear)"/><path d="M17.578 31.621l-3.055-3.043-2.045 2.083 5.023 5.003 7.98-7.36-1.964-2.16-5.939 5.477z" fill="url(#fpaint1_linear)"/><path d="M19 18.127c-6.72 0-12.186 5.508-12.186 12.277C6.814 37.173 12.28 42.68 19 42.68s12.186-5.507 12.186-12.276c0-6.77-5.466-12.277-12.186-12.277zm0 21.623c-5.116 0-9.278-4.193-9.278-9.346 0-5.154 4.162-9.347 9.278-9.347 5.116 0 9.278 4.193 9.278 9.347 0 5.153-4.162 9.346-9.278 9.346z" fill="url(#fpaint2_linear)"/><defs><linearGradient id="fpaint0_linear" x1="0" y1="0" x2="38" y2="0" gradientUnits="userSpaceOnUse"><stop stop-color="#2266B8"/><stop offset="1" stop-color="#61A8DE"/><stop offset="1" stop-color="#61A8DE"/></linearGradient><linearGradient id="fpaint1_linear" x1="0" y1="0" x2="38" y2="0" gradientUnits="userSpaceOnUse"><stop stop-color="#2266B8"/><stop offset="1" stop-color="#61A8DE"/><stop offset="1" stop-color="#61A8DE"/></linearGradient><linearGradient id="fpaint2_linear" x1="0" y1="0" x2="38" y2="0" gradientUnits="userSpaceOnUse"><stop stop-color="#2266B8"/><stop offset="1" stop-color="#61A8DE"/><stop offset="1" stop-color="#61A8DE"/></linearGradient></defs></svg><svg fill="none" viewBox="0 0 50 47" id="intro-03" xmlns="http://www.w3.org/2000/svg"><path d="M0 0v44.063h5.86V47h8.788v-2.938h20.704V47h8.789v-2.938H50V0H0zm47.07 41.125h-5.86v2.938h-2.929v-2.938H11.72v2.938h-2.93v-2.938H2.93V2.937H47.07v38.188z" fill="url(#gpaint0_linear)"/><path d="M44.14 5.875H5.86v32.313h38.28V5.874zM41.21 35.25H8.79V8.812h32.42V35.25z" fill="url(#gpaint1_linear)"/><path d="M22.07 32.313c5.654 0 10.254-4.613 10.254-10.282S27.724 11.75 22.07 11.75s-10.254 4.612-10.254 10.281c0 5.67 4.6 10.282 10.254 10.282zM14.893 23.5h3.035a4.421 4.421 0 002.677 2.685v3.042a7.356 7.356 0 01-5.712-5.727zm7.177-2.938a1.469 1.469 0 010 2.938 1.468 1.468 0 010-2.938zm1.465 8.665v-3.042a4.422 4.422 0 002.678-2.685h3.034a7.356 7.356 0 01-5.712 5.727zm5.712-8.665h-3.034a4.422 4.422 0 00-2.678-2.684v-3.043a7.356 7.356 0 015.712 5.727zm-8.642-5.727v3.043a4.421 4.421 0 00-2.677 2.684h-3.035a7.356 7.356 0 015.712-5.727z" fill="url(#gpaint2_linear)"/><path d="M35.254 20.563h2.93V23.5h-2.93v-2.938z" fill="url(#gpaint3_linear)"/><path d="M35.254 14.688h2.93v2.937h-2.93v-2.938z" fill="url(#gpaint4_linear)"/><path d="M35.254 26.438h2.93v2.937h-2.93v-2.938z" fill="url(#gpaint5_linear)"/><defs><linearGradient id="gpaint0_linear" x1="0" y1="0" x2="50" y2="0" gradientUnits="userSpaceOnUse"><stop stop-color="#2266B8"/><stop offset="1" stop-color="#61A8DE"/><stop offset="1" stop-color="#61A8DE"/></linearGradient><linearGradient id="gpaint1_linear" x1="0" y1="0" x2="50" y2="0" gradientUnits="userSpaceOnUse"><stop stop-color="#2266B8"/><stop offset="1" stop-color="#61A8DE"/><stop offset="1" stop-color="#61A8DE"/></linearGradient><linearGradient id="gpaint2_linear" x1="0" y1="0" x2="50" y2="0" gradientUnits="userSpaceOnUse"><stop stop-color="#2266B8"/><stop offset="1" stop-color="#61A8DE"/><stop offset="1" stop-color="#61A8DE"/></linearGradient><linearGradient id="gpaint3_linear" x1="0" y1="0" x2="50" y2="0" gradientUnits="userSpaceOnUse"><stop stop-color="#2266B8"/><stop offset="1" stop-color="#61A8DE"/><stop offset="1" stop-color="#61A8DE"/></linearGradient><linearGradient id="gpaint4_linear" x1="0" y1="0" x2="50" y2="0" gradientUnits="userSpaceOnUse"><stop stop-color="#2266B8"/><stop offset="1" stop-color="#61A8DE"/><stop offset="1" stop-color="#61A8DE"/></linearGradient><linearGradient id="gpaint5_linear" x1="0" y1="0" x2="50" y2="0" gradientUnits="userSpaceOnUse"><stop stop-color="#2266B8"/><stop offset="1" stop-color="#61A8DE"/><stop offset="1" stop-color="#61A8DE"/></linearGradient></defs></svg><svg fill="none" viewBox="0 0 50 36" id="intro-04" xmlns="http://www.w3.org/2000/svg"><path d="M45.869 7.44c-2.278 0-4.131 1.867-4.131 4.162 0 .376.05.74.144 1.087l-2.866 1.421-2.573-6.32-6.453 3.763-2.737-3.94a4.17 4.17 0 001.825-3.451c0-2.295-1.853-4.162-4.13-4.162-2.279 0-4.132 1.867-4.132 4.162 0 1.427.717 2.688 1.806 3.438l-2.708 3.897-6.357-3.706-2.595 6.375-2.984-1.48c.183-.469.284-.979.284-1.512 0-2.295-1.853-4.162-4.131-4.162C1.853 7.012 0 8.879 0 11.174c0 2.294 1.853 4.162 4.131 4.162.334 0 .659-.042.97-.117l5.002 14.17V36h29.643v-6.565l4.892-13.86a4.09 4.09 0 001.23.189c2.279 0 4.132-1.867 4.132-4.162S48.147 7.44 45.869 7.44zM4.13 12.384a1.207 1.207 0 01-1.201-1.21c0-.668.539-1.21 1.201-1.21.663 0 1.201.542 1.201 1.21 0 .667-.539 1.21-1.2 1.21zm30.875-.345l1.375 3.378-2.757 1.367-1.948-2.804 3.33-1.941zM24.948 2.952c.662 0 1.2.543 1.2 1.21 0 .667-.538 1.21-1.2 1.21a1.207 1.207 0 01-1.202-1.21c0-.667.539-1.21 1.202-1.21zm-9.954 9.087l3.234 1.885-1.987 2.86-2.645-1.312 1.398-3.433zm21.822 21.01H13.033V30.61h23.783v2.438zm.448-5.39H12.602L8.584 16.277l8.617 4.272 7.732-11.127 7.731 11.127 8.617-4.272-4.017 11.382zm8.605-14.847a1.207 1.207 0 01-1.201-1.21c0-.668.538-1.21 1.2-1.21.663 0 1.202.542 1.202 1.21 0 .667-.539 1.21-1.201 1.21z" fill="url(#hpaint0_linear)"/><defs><linearGradient id="hpaint0_linear" x1="0" y1="0" x2="50" y2="0" gradientUnits="userSpaceOnUse"><stop stop-color="#2266B8"/><stop offset="1" stop-color="#61A8DE"/><stop offset="1" stop-color="#61A8DE"/></linearGradient></defs></svg><svg fill="none" viewBox="0 0 15 26" id="left" xmlns="http://www.w3.org/2000/svg"><path d="M14 1L2 13.21 14 25" stroke="#fff" stroke-width="2"/></svg><svg fill="none" viewBox="0 0 50 44" id="payment" xmlns="http://www.w3.org/2000/svg"><path d="M44.14 8.8V0H5.86C2.628 0 0 2.632 0 5.867v30.8C0 40.71 3.286 44 7.324 44H50V8.8h-5.86zM5.86 2.933h35.35V8.8H5.86a2.935 2.935 0 01-2.93-2.933 2.935 2.935 0 012.93-2.934zm41.21 29.334h-7.324a4.402 4.402 0 01-4.394-4.4c0-2.427 1.97-4.4 4.394-4.4h7.324v8.8zm0-11.734h-7.324c-4.038 0-7.324 3.29-7.324 7.334 0 4.043 3.286 7.333 7.324 7.333h7.324v5.867H7.324a4.402 4.402 0 01-4.394-4.4V10.944c.862.501 1.862.79 2.93.79h41.21v8.8z" fill="#000"/><path d="M41.21 26.4h-2.929v2.933h2.93V26.4z" fill="#000"/></svg><svg fill="none" viewBox="0 0 15 26" id="right" xmlns="http://www.w3.org/2000/svg"><path d="M1 1l12 12.21L1 25" stroke="#fff" stroke-width="2"/></svg><svg fill="none" viewBox="0 0 60 60" id="scheme-01" xmlns="http://www.w3.org/2000/svg"><path d="M60 34.89c0-4.328-3.443-7.864-7.734-8.02v-4.604C52.266 9.988 42.277 0 30 0 17.723 0 7.734 9.988 7.734 22.266v4.605C3.444 27.026 0 30.562 0 34.89c0 4.327 3.443 7.864 7.734 8.02v4.042h4.805v3.011a6.26 6.26 0 006.253 6.253h3.884V60h9.296c2.952 0 5.352-2.4 5.352-5.352 0-2.95-2.4-5.35-5.352-5.35h-9.296V52.7h-3.884a2.74 2.74 0 01-2.737-2.737v-3.01h4.804V22.827H11.25v-.562c0-10.34 8.411-18.75 18.75-18.75s18.75 8.41 18.75 18.75v.562h-9.61v24.125h13.126V42.91c4.29-.154 7.734-3.692 7.734-8.02zM26.191 52.813h5.781c1.013 0 1.837.823 1.837 1.835a1.838 1.838 0 01-1.837 1.836h-5.78v-3.671zM3.516 34.89c0-2.389 1.867-4.35 4.218-4.501v9.003a4.517 4.517 0 01-4.218-4.502zm13.828 8.548H11.25V26.343h6.094v17.095zm31.406 0h-6.094V26.343h6.094v17.095zm3.516-4.047V30.39a4.517 4.517 0 014.218 4.501c0 2.39-1.867 4.35-4.218 4.502z" fill="#fff"/></svg><svg fill="none" viewBox="0 0 47 60" id="scheme-02" xmlns="http://www.w3.org/2000/svg"><path d="M35.837 3.466V0H11.162v3.466H0V60h47V3.466H35.837zm-21.15.05h17.626v3.466H14.686V3.516zm28.788 52.968H3.525V6.982h7.637v3.515h24.675V6.982h7.638v49.502z" fill="#fff"/><path d="M17.625 14.599H7.05v10.547h10.575V14.599zM14.1 21.63h-3.525v-3.515H14.1v3.515zM23.485 18.115H39.95v3.515H23.485v-3.515zM17.625 29.13H7.05v10.547h10.575V29.13zM14.1 36.161h-3.525v-3.515H14.1v3.515zM23.485 32.646H39.95v3.515H23.485v-3.515zM23.485 46.943H39.95v3.515H23.485v-3.515zM10.928 48.676l-2.28-2.273-2.492 2.486 4.772 4.758 7.708-7.688-2.492-2.486-5.216 5.203z" fill="#fff"/></svg><svg fill="none" viewBox="0 0 57 60" id="scheme-03" xmlns="http://www.w3.org/2000/svg"><path d="M0 0v60h42.75V11.622L31.019 0H0zm32.063 6.025l4.605 4.563h-4.605V6.025zm-28.5 50.446V3.529H28.5v10.589h10.688V56.47H3.562z" fill="#fff"/><path d="M27.41 45.07l-7.023 4.638 1.976 2.937 3.665-2.42 1.371 2.716h8.226v-3.53h-6.024L27.41 45.07zM51.656 7.059c-2.946 0-5.343 2.375-5.343 5.294v39.339l5.343 8.294L57 51.692v-39.34c0-2.918-2.397-5.293-5.344-5.293zm1.782 15.882h-3.563v-3.53h3.563v3.53zm-1.782-12.353c.982 0 1.782.792 1.782 1.765v3.53h-3.563v-3.53c0-.973.8-1.765 1.781-1.765zm1.782 40.073l-1.782 2.765-1.781-2.765v-3.014h3.563v3.014zm-3.563-6.543V26.47h3.563v17.647h-3.563zM7.125 37.059h28.5v3.53h-28.5v-3.53zM7.125 30h28.5v3.53h-28.5V30zM7.125 22.941h28.5v3.53h-28.5v-3.53zM7.125 15.882h14.25v3.53H7.125v-3.53zM7.125 8.824h14.25v3.529H7.125v-3.53z" fill="#fff"/></svg><svg fill="none" viewBox="0 0 60 60" id="scheme-04" xmlns="http://www.w3.org/2000/svg"><path d="M48.07 27.925V4.791H0v45.19h35.545c2.511 3.18 6.397 5.228 10.754 5.228C53.854 55.209 60 49.063 60 41.508c0-6.954-5.209-12.71-11.93-13.583zM17.146 8.216h13.781v11.525l-6.89-3.785-6.892 3.785V8.216zm16.421 38.34H3.426V8.216h10.293V25.53l10.316-5.666 10.317 5.666V8.216h10.294v19.695c-6.778.82-12.048 6.602-12.048 13.597 0 1.782.346 3.485.968 5.048zM46.3 51.784c-5.666 0-10.275-4.61-10.275-10.276 0-5.666 4.61-10.276 10.275-10.276 5.666 0 10.276 4.61 10.276 10.276 0 5.666-4.61 10.276-10.276 10.276z" fill="#fff"/><path d="M46.289 40.892l-2.412-2.412-2.422 2.423 4.854 4.854 6.263-6.37-2.442-2.4-3.841 3.905z" fill="#fff"/></svg><svg viewBox="0 0 512.005 512.005" id="search" xmlns="http://www.w3.org/2000/svg"><path d="M505.749 475.587l-145.6-145.6c28.203-34.837 45.184-79.104 45.184-127.317C405.333 90.926 314.41.003 202.666.003S0 90.925 0 202.669s90.923 202.667 202.667 202.667c48.213 0 92.48-16.981 127.317-45.184l145.6 145.6c4.16 4.16 9.621 6.251 15.083 6.251s10.923-2.091 15.083-6.251c8.341-8.341 8.341-21.824-.001-30.165zM202.667 362.669c-88.235 0-160-71.765-160-160s71.765-160 160-160 160 71.765 160 160-71.766 160-160 160z" fill="#FFF"/></svg></svg>